<svg
   width="36.198738mm"
   height="7.0945601mm"
   viewBox="0 0 36.198738 7.0945601"
   version="1.1"
   id="logo"
  <g
     transform="translate(-42.792011,-38.618326)">
    <g
       aria-label="MISSION"
       id="text12"
       style="font-size:8.46667px;line-height:1.25;font-family:'MV Boli';-inkscape-font-specification:'MV Boli';fill:#00897b;fill-opacity:1;stroke:#00897b;stroke-width:0.265;stroke-miterlimit:4;stroke-dasharray:none;stroke-opacity:1">
      <path
         d="m 42.945181,44.993341 q 0.07855,-0.314193 0.219108,-0.698665 0.14056,-0.384473 0.322461,-0.802019 0.186036,-0.417546 0.405144,-0.847494 0.223242,-0.429948 0.458887,-0.835091 0.239779,-0.409278 0.487825,-0.768946 0.252182,-0.363802 0.496094,-0.649056 0.07028,-0.07855 0.173633,-0.194304 0.107487,-0.115755 0.235645,-0.239778 0.132292,-0.124024 0.272852,-0.243913 0.144694,-0.124024 0.289388,-0.219108 0.144694,-0.09922 0.28112,-0.157097 0.136425,-0.06201 0.252181,-0.06201 0.157096,0 0.285254,0.05374 0.132291,0.05374 0.223242,0.152962 0.09509,0.09922 0.144694,0.239779 0.05374,0.136426 0.05374,0.30179 0,0.07028 -0.0124,0.14056 -0.0083,0.07028 -0.0248,0.144694 l -0.458887,2.306837 q 0.06201,-0.09508 0.173633,-0.256315 0.111621,-0.165365 0.252181,-0.363802 0.14056,-0.202572 0.293522,-0.417546 0.152962,-0.219108 0.297656,-0.42168 0.148828,-0.202571 0.272852,-0.367936 0.124023,-0.169499 0.202572,-0.272852 l 0.07441,-0.09508 q 0.07441,-0.09508 0.181901,-0.223243 0.107487,-0.128157 0.235644,-0.268717 0.132292,-0.14056 0.276986,-0.276986 0.144694,-0.136426 0.293523,-0.243913 0.148828,-0.107487 0.293522,-0.173633 0.144694,-0.07028 0.276986,-0.07028 0.09922,0 0.165364,0.04548 0.06615,0.04547 0.107487,0.124023 0.04134,0.07441 0.05788,0.177767 0.01654,0.103353 0.01654,0.214974 0,0.173633 -0.02894,0.3514 -0.02894,0.177767 -0.06614,0.322461 -0.02067,0.115755 -0.05788,0.330729 -0.03307,0.214974 -0.08268,0.496094 -0.04548,0.276986 -0.09922,0.603581 -0.05374,0.322461 -0.111621,0.657325 -0.05374,0.334863 -0.111621,0.661458 -0.05374,0.326596 -0.103353,0.61185 -0.04548,0.281119 -0.08682,0.504362 -0.03721,0.223242 -0.06201,0.347265 -0.0124,0.05788 -0.04134,0.157097 -0.0248,0.09922 -0.07855,0.194303 -0.04961,0.09508 -0.136426,0.165365 -0.08268,0.07028 -0.206705,0.07028 -0.06615,0 -0.128158,-0.04134 -0.05788,-0.04548 -0.107487,-0.111621 -0.04547,-0.06615 -0.07441,-0.14056 -0.02481,-0.07855 -0.02894,-0.14056 l 0.859896,-4.084507 q 0.0124,-0.05788 0.02067,-0.103353 0.0083,-0.04548 0.0083,-0.08682 0,-0.04548 -0.0124,-0.08268 -0.0083,-0.03721 -0.01654,-0.07028 -0.0124,-0.03721 -0.02481,-0.06615 -0.186035,0.14056 -0.401009,0.359669 -0.21084,0.214974 -0.429948,0.483691 -0.214974,0.264584 -0.434082,0.566374 -0.214974,0.297656 -0.409278,0.599447 -0.152962,0.235645 -0.330729,0.496094 -0.173633,0.260449 -0.3514,0.525033 -0.177767,0.260449 -0.347266,0.525032 -0.165364,0.26045 -0.30179,0.500228 -0.06615,0.115756 -0.136426,0.297657 -0.07028,0.181901 -0.157096,0.355534 -0.08268,0.173633 -0.181901,0.297656 -0.09508,0.124024 -0.219109,0.124024 -0.09508,0 -0.16123,-0.02894 -0.06201,-0.02894 -0.09922,-0.07441 -0.03721,-0.04961 -0.05374,-0.111621 -0.01654,-0.06615 -0.01654,-0.14056 0,-0.09509 0.01654,-0.19017 0.02067,-0.09508 0.04134,-0.181901 0.08682,-0.363802 0.181901,-0.72347 0.09508,-0.359668 0.194303,-0.735873 0.103353,-0.376204 0.21084,-0.777214 0.107487,-0.405143 0.219108,-0.859896 0.02894,-0.128157 0.06615,-0.285254 0.03721,-0.16123 0.07028,-0.322461 0.03307,-0.165365 0.05374,-0.318327 0.02067,-0.152962 0.02067,-0.272852 0,-0.107487 -0.01654,-0.169498 -0.01654,-0.06615 -0.06201,-0.06615 -0.152962,0 -0.322461,0.115755 -0.169499,0.111621 -0.343132,0.297656 -0.173632,0.186036 -0.343131,0.425814 -0.169499,0.239779 -0.322461,0.496094 -0.152963,0.252181 -0.285254,0.500228 -0.132292,0.248047 -0.227377,0.446485 -0.02067,0.04134 -0.06201,0.115755 -0.03721,0.07028 -0.103353,0.202572 -0.06201,0.128158 -0.157097,0.330729 -0.09095,0.202572 -0.219108,0.512631 -0.124023,0.310058 -0.289388,0.740006 -0.165365,0.429949 -0.372071,1.008725 -0.03721,0.09922 -0.132291,0.16123 -0.09095,0.06201 -0.19017,0.06201 -0.214974,0 -0.318327,-0.115755 -0.09922,-0.115755 -0.09922,-0.285254 0,-0.07441 0.02067,-0.165365 z"
         style="fill:#00897b;fill-opacity:1;stroke:#00897b;stroke-width:0.265;stroke-miterlimit:4;stroke-dasharray:none;stroke-opacity:1"
         id="path836" />
      <path
         d="m 51.589618,42.984161 q 0.03721,-0.161231 0.08682,-0.355534 0.05374,-0.198438 0.111621,-0.409278 0.06201,-0.21084 0.124023,-0.425814 0.06201,-0.214974 0.11989,-0.413411 0.06201,-0.198438 0.111621,-0.367937 0.04961,-0.173633 0.08682,-0.293522 0.07855,-0.268718 0.148829,-0.537435 0.07028,-0.272852 0.136425,-0.570508 0.08268,-0.161231 0.223243,-0.227377 0.14056,-0.07028 0.305924,-0.07028 0.132292,0.07028 0.206706,0.194304 0.07855,0.119889 0.07855,0.272852 0,0.107487 -0.03721,0.248047 -0.03307,0.136425 -0.08682,0.297656 -0.05374,0.157096 -0.11989,0.334863 -0.06614,0.173633 -0.128157,0.359668 -0.115755,0.338998 -0.231511,0.677996 -0.115755,0.338997 -0.227376,0.715202 -0.02894,0.09922 -0.06201,0.198437 -0.03307,0.09922 -0.07028,0.214974 -0.03307,0.115756 -0.07441,0.26045 -0.04134,0.14056 -0.08268,0.326595 -0.04961,0.219108 -0.08682,0.44235 -0.03721,0.219108 -0.07028,0.442351 -0.03307,0.223242 -0.07441,0.450618 -0.04134,0.227377 -0.09922,0.458887 -0.02067,0.08268 -0.07442,0.148828 -0.04961,0.06201 -0.115755,0.107487 -0.06615,0.04548 -0.14056,0.07028 -0.07441,0.0248 -0.14056,0.0248 -0.06615,0 -0.128157,-0.0124 -0.05788,-0.0083 -0.09095,-0.04548 -0.04961,-0.05374 -0.07855,-0.119889 -0.02894,-0.06615 -0.02894,-0.14056 0,-0.02067 0,-0.03721 0.0041,-0.02067 0.0083,-0.04134 z"
         style="fill:#00897b;fill-opacity:1;stroke:#00897b;stroke-width:0.265;stroke-miterlimit:4;stroke-dasharray:none;stroke-opacity:1"
         id="path838" />
      <path
         d="m 53.495446,44.402163 q 0.14056,0.04961 0.285254,0.115755 0.148828,0.06615 0.305925,0.128157 0.157096,0.05788 0.326595,0.09922 0.173633,0.04134 0.367936,0.04134 0.227376,0 0.458887,-0.05374 0.23151,-0.05374 0.450619,-0.157097 0.223242,-0.107487 0.425814,-0.256315 0.202571,-0.152962 0.37207,-0.3514 0.186035,-0.21084 0.310059,-0.380338 0.124023,-0.173633 0.198437,-0.305925 0.07855,-0.136426 0.111621,-0.23151 0.03307,-0.09922 0.03307,-0.169499 0,-0.103353 -0.07028,-0.177767 -0.07028,-0.07855 -0.190169,-0.128158 -0.115755,-0.04961 -0.264583,-0.07028 -0.148829,-0.0248 -0.310059,-0.0248 -0.09509,0 -0.223242,0.0083 -0.128158,0.0041 -0.26045,0.0124 -0.132291,0.0041 -0.256315,0.0083 -0.124023,0.0041 -0.214974,0.0041 -0.136426,0 -0.285254,-0.02894 -0.144694,-0.03307 -0.285254,-0.103353 -0.14056,-0.07028 -0.260449,-0.19017 -0.11989,-0.119889 -0.198438,-0.297656 -0.02481,-0.05788 -0.04547,-0.136426 -0.02067,-0.07855 -0.02067,-0.169499 0,-0.09922 0.0124,-0.186035 0.01654,-0.09095 0.03721,-0.173633 0.05788,-0.206706 0.190169,-0.417545 0.136426,-0.214974 0.322461,-0.417546 0.190169,-0.202572 0.409278,-0.392741 0.223242,-0.19017 0.454752,-0.355534 0.235645,-0.169499 0.458887,-0.301791 0.227377,-0.136426 0.42168,-0.23151 0.272852,-0.132292 0.553972,-0.19017 0.285254,-0.06201 0.56224,-0.06201 0.165364,0 0.314192,0.04547 0.148829,0.04134 0.26045,0.124023 0.115755,0.08268 0.181901,0.206706 0.06615,0.11989 0.06615,0.276986 0,0.09095 -0.02067,0.152962 -0.02067,0.06201 -0.05374,0.103353 -0.03307,0.03721 -0.07442,0.05374 -0.03721,0.01654 -0.07855,0.01654 -0.111621,0 -0.206706,-0.0248 -0.09095,-0.02481 -0.177767,-0.05374 -0.08682,-0.03307 -0.173632,-0.05788 -0.08682,-0.02894 -0.19017,-0.02894 -0.305924,0 -0.624251,0.124023 -0.314193,0.119889 -0.615984,0.310059 -0.297656,0.186035 -0.566374,0.417546 -0.264583,0.23151 -0.475423,0.450618 -0.111621,0.115755 -0.165365,0.231511 -0.04961,0.115755 -0.04961,0.219108 0,0.152962 0.132292,0.239779 0.132291,0.08682 0.322461,0.08682 0.111621,0 0.252181,-0.0041 0.14056,-0.0041 0.285254,-0.0083 0.148828,-0.0083 0.285254,-0.0124 0.14056,-0.0083 0.248047,-0.0083 0.256315,0 0.49196,0.07441 0.235644,0.07028 0.417545,0.21084 0.181902,0.14056 0.289389,0.3514 0.111621,0.206706 0.111621,0.475423 0,0.165365 -0.04961,0.334864 -0.04961,0.169499 -0.136425,0.343131 -0.08682,0.169499 -0.198438,0.338998 -0.111621,0.165365 -0.235645,0.326595 -0.223242,0.289388 -0.500228,0.545704 -0.272851,0.256315 -0.58291,0.446484 -0.310059,0.190169 -0.657325,0.301791 -0.343131,0.111621 -0.706933,0.111621 -0.157097,0 -0.322462,-0.02894 -0.165364,-0.02894 -0.326595,-0.08682 -0.16123,-0.05374 -0.305924,-0.136425 -0.14056,-0.08682 -0.248047,-0.194304 -0.107487,-0.107487 -0.173633,-0.235644 -0.06201,-0.132292 -0.06201,-0.285255 0,-0.07441 0.02067,-0.140559 0.0248,-0.07028 0.115755,-0.07028 z m 2.100131,-5.097366 z"
         style="fill:#00897b;fill-opacity:1;stroke:#00897b;stroke-width:0.265;stroke-miterlimit:4;stroke-dasharray:none;stroke-opacity:1"
         id="path840" />
      <path
         d="m 58.675493,44.402163 q 0.14056,0.04961 0.285254,0.115755 0.148828,0.06615 0.305925,0.128157 0.157096,0.05788 0.326595,0.09922 0.173633,0.04134 0.367936,0.04134 0.227376,0 0.458887,-0.05374 0.23151,-0.05374 0.450619,-0.157097 0.223242,-0.107487 0.425814,-0.256315 0.202571,-0.152962 0.37207,-0.3514 0.186035,-0.21084 0.310059,-0.380338 0.124023,-0.173633 0.198437,-0.305925 0.07855,-0.136426 0.111622,-0.23151 0.03307,-0.09922 0.03307,-0.169499 0,-0.103353 -0.07028,-0.177767 -0.07028,-0.07855 -0.190169,-0.128158 -0.115755,-0.04961 -0.264583,-0.07028 -0.148828,-0.0248 -0.310059,-0.0248 -0.09508,0 -0.223242,0.0083 -0.128158,0.0041 -0.26045,0.0124 -0.132291,0.0041 -0.256315,0.0083 -0.124023,0.0041 -0.214974,0.0041 -0.136426,0 -0.285254,-0.02894 -0.144694,-0.03307 -0.285254,-0.103353 -0.14056,-0.07028 -0.260449,-0.19017 -0.11989,-0.119889 -0.198438,-0.297656 -0.02481,-0.05788 -0.04548,-0.136426 -0.02067,-0.07855 -0.02067,-0.169499 0,-0.09922 0.0124,-0.186035 0.01654,-0.09095 0.03721,-0.173633 0.05788,-0.206706 0.190169,-0.417545 0.136426,-0.214974 0.322461,-0.417546 0.190169,-0.202572 0.409278,-0.392741 0.223242,-0.19017 0.454752,-0.355534 0.235645,-0.169499 0.458887,-0.301791 0.227377,-0.136426 0.42168,-0.23151 0.272852,-0.132292 0.553972,-0.19017 0.285254,-0.06201 0.56224,-0.06201 0.165364,0 0.314192,0.04547 0.148829,0.04134 0.26045,0.124023 0.115755,0.08268 0.181901,0.206706 0.06615,0.11989 0.06615,0.276986 0,0.09095 -0.02067,0.152962 -0.02067,0.06201 -0.05374,0.103353 -0.03307,0.03721 -0.07441,0.05374 -0.03721,0.01654 -0.07855,0.01654 -0.111621,0 -0.206706,-0.0248 -0.09095,-0.02481 -0.177767,-0.05374 -0.08682,-0.03307 -0.173632,-0.05788 -0.08682,-0.02894 -0.19017,-0.02894 -0.305924,0 -0.624251,0.124023 -0.314193,0.119889 -0.615984,0.310059 -0.297656,0.186035 -0.566374,0.417546 -0.264583,0.23151 -0.475423,0.450618 -0.111621,0.115755 -0.165365,0.231511 -0.04961,0.115755 -0.04961,0.219108 0,0.152962 0.132292,0.239779 0.132292,0.08682 0.322461,0.08682 0.111621,0 0.252181,-0.0041 0.14056,-0.0041 0.285254,-0.0083 0.148828,-0.0083 0.285254,-0.0124 0.14056,-0.0083 0.248047,-0.0083 0.256315,0 0.49196,0.07441 0.235644,0.07028 0.417546,0.21084 0.181901,0.14056 0.289388,0.3514 0.111621,0.206706 0.111621,0.475423 0,0.165365 -0.04961,0.334864 -0.04961,0.169499 -0.136425,0.343131 -0.08682,0.169499 -0.198438,0.338998 -0.111621,0.165365 -0.235645,0.326595 -0.223242,0.289388 -0.500228,0.545704 -0.272851,0.256315 -0.58291,0.446484 -0.310059,0.190169 -0.657325,0.301791 -0.343131,0.111621 -0.706933,0.111621 -0.157097,0 -0.322462,-0.02894 -0.165364,-0.02894 -0.326595,-0.08682 -0.16123,-0.05374 -0.305924,-0.136425 -0.14056,-0.08682 -0.248047,-0.194304 -0.107487,-0.107487 -0.173633,-0.235644 -0.06201,-0.132292 -0.06201,-0.285255 0,-0.07441 0.02067,-0.140559 0.0248,-0.07028 0.115755,-0.07028 z m 2.100131,-5.097366 z"
         style="fill:#00897b;fill-opacity:1;stroke:#00897b;stroke-width:0.265;stroke-miterlimit:4;stroke-dasharray:none;stroke-opacity:1"
         id="path842" />
      <path
         d="m 64.426049,42.984161 q 0.03721,-0.161231 0.08682,-0.355534 0.05374,-0.198438 0.111622,-0.409278 0.06201,-0.21084 0.124023,-0.425814 0.06201,-0.214974 0.119889,-0.413411 0.06201,-0.198438 0.111622,-0.367937 0.04961,-0.173633 0.08682,-0.293522 0.07855,-0.268718 0.148828,-0.537435 0.07028,-0.272852 0.136426,-0.570508 0.08268,-0.161231 0.223242,-0.227377 0.14056,-0.07028 0.305925,-0.07028 0.132292,0.07028 0.206706,0.194304 0.07855,0.119889 0.07855,0.272852 0,0.107487 -0.03721,0.248047 -0.03307,0.136425 -0.08682,0.297656 -0.05374,0.157096 -0.119889,0.334863 -0.06615,0.173633 -0.128158,0.359668 -0.115755,0.338998 -0.23151,0.677996 -0.115755,0.338997 -0.227376,0.715202 -0.02894,0.09922 -0.06201,0.198437 -0.03307,0.09922 -0.07028,0.214974 -0.03307,0.115756 -0.07441,0.26045 -0.04134,0.14056 -0.08268,0.326595 -0.04961,0.219108 -0.08682,0.44235 -0.03721,0.219108 -0.07028,0.442351 -0.03307,0.223242 -0.07441,0.450618 -0.04134,0.227377 -0.09922,0.458887 -0.02067,0.08268 -0.07441,0.148828 -0.04961,0.06201 -0.115755,0.107487 -0.06615,0.04548 -0.14056,0.07028 -0.07441,0.0248 -0.14056,0.0248 -0.06615,0 -0.128158,-0.0124 -0.05788,-0.0083 -0.09095,-0.04548 -0.04961,-0.05374 -0.07855,-0.119889 -0.02894,-0.06615 -0.02894,-0.14056 0,-0.02067 0,-0.03721 0.0041,-0.02067 0.0083,-0.04134 z"
         style="fill:#00897b;fill-opacity:1;stroke:#00897b;stroke-width:0.265;stroke-miterlimit:4;stroke-dasharray:none;stroke-opacity:1"
         id="path844" />
      <path
         d="m 66.431095,43.252878 q 0.07441,-0.310058 0.214974,-0.63252 0.14056,-0.326595 0.33073,-0.65319 0.190169,-0.326595 0.421679,-0.640788 0.235645,-0.318327 0.496094,-0.611849 0.264584,-0.297656 0.54157,-0.558106 0.28112,-0.264583 0.562239,-0.483691 0.132292,-0.09095 0.243913,-0.11989 0.111621,-0.02894 0.235645,-0.02894 0.132292,0 0.235645,0.04134 0.103352,0.03721 0.206705,0.14056 0.03307,0.03721 0.07028,0.06614 0.03721,0.02894 0.07028,0.02894 0.0083,0 0.02067,-0.01654 0.0124,-0.02067 0.02481,-0.04548 0.01654,-0.0248 0.03721,-0.04961 0.02067,-0.02894 0.04961,-0.04134 0.07028,-0.03307 0.165365,-0.04134 0.09922,-0.0124 0.198437,-0.0124 0.186035,0 0.359668,0.07028 0.173633,0.06615 0.305925,0.19017 0.314193,0.293522 0.475423,0.702799 0.165365,0.409278 0.165365,0.880567 0,0.42168 -0.124024,0.909506 -0.107487,0.429948 -0.310058,0.835091 -0.198438,0.405144 -0.471289,0.760678 -0.268718,0.355534 -0.603581,0.649056 -0.33073,0.293522 -0.706934,0.504362 -0.376205,0.21084 -0.785482,0.326595 -0.409278,0.11989 -0.830958,0.11989 -0.392741,0 -0.706934,-0.11989 -0.310058,-0.119889 -0.529167,-0.338997 -0.214974,-0.219108 -0.330729,-0.520899 -0.111621,-0.30179 -0.111621,-0.669727 0,-0.157096 0.01654,-0.314193 0.02067,-0.16123 0.06201,-0.326595 z m 0.698666,0.276986 q -0.04547,0.206706 -0.04547,0.37207 0,0.231511 0.07855,0.409278 0.08268,0.173633 0.227376,0.293522 0.148828,0.115756 0.3514,0.177767 0.206706,0.05788 0.450619,0.05788 0.289388,0 0.587044,-0.09095 0.301791,-0.09095 0.587045,-0.264583 0.285254,-0.173633 0.549837,-0.417546 0.264584,-0.243913 0.487826,-0.553971 0.227376,-0.310059 0.401009,-0.673861 0.177767,-0.363803 0.285254,-0.77308 0.04134,-0.148828 0.05788,-0.310059 0.02067,-0.16123 0.02067,-0.310059 0,-0.239778 -0.05374,-0.458886 -0.05374,-0.219109 -0.177767,-0.388607 -0.124024,-0.169499 -0.326595,-0.268718 -0.202572,-0.103353 -0.496094,-0.103353 -0.04134,0 -0.06615,0.03721 -0.02067,0.03307 -0.04547,0.08682 -0.02067,0.04547 -0.04961,0.09508 -0.0248,0.04961 -0.07028,0.09095 -0.04134,0.03721 -0.107487,0.06201 -0.06201,0.0248 -0.157096,0.0248 -0.07028,0 -0.124024,-0.02894 -0.05374,-0.03307 -0.107487,-0.08682 -0.0248,-0.0248 -0.04134,-0.03721 -0.01654,-0.01654 -0.03721,-0.01654 -0.03721,0 -0.09922,0.03307 -0.05788,0.03307 -0.124023,0.07855 -0.06201,0.04548 -0.124024,0.09508 -0.05788,0.04961 -0.09095,0.08682 -0.28112,0.289388 -0.56224,0.63252 -0.276986,0.338997 -0.51263,0.702799 -0.235645,0.363803 -0.413412,0.735873 -0.173633,0.367936 -0.252181,0.711068 z m 3.009637,-4.225067 z"
         style="fill:#00897b;fill-opacity:1;stroke:#00897b;stroke-width:0.265;stroke-miterlimit:4;stroke-dasharray:none;stroke-opacity:1"
         id="path846" />
      <path
         d="m 73.678202,40.354863 q 0.0248,-0.107487 0.06201,-0.227377 0.03721,-0.124023 0.09922,-0.223242 0.06201,-0.103353 0.161231,-0.169499 0.09922,-0.07028 0.252181,-0.07028 0.144694,0 0.256315,0.08268 0.115755,0.07855 0.206706,0.16123 0.107487,0.07028 0.206706,0.285254 0.09922,0.214974 0.202571,0.529167 0.107487,0.314193 0.227377,0.711068 0.124023,0.396875 0.268717,0.830957 0.148828,0.434083 0.33073,0.888835 0.181901,0.450619 0.413411,0.880567 0.03721,0.06615 0.08682,0.157097 0.04961,0.08682 0.09922,0.165364 0.05374,0.07855 0.09508,0.132292 0.04548,0.05374 0.06615,0.05374 0.0124,0 0.02894,-0.06201 0.01654,-0.06201 0.03721,-0.148828 0.02067,-0.08682 0.04134,-0.177767 0.02481,-0.09095 0.04547,-0.148829 0.07855,-0.190169 0.169499,-0.434082 0.09508,-0.248047 0.206706,-0.595313 0.115755,-0.351399 0.252181,-0.830957 0.136426,-0.479557 0.30179,-1.136882 0.04134,-0.16123 0.08682,-0.363802 0.04961,-0.206706 0.09095,-0.417546 0.04548,-0.214974 0.07855,-0.417546 0.03307,-0.202571 0.04547,-0.351399 0,-0.02481 0.0041,-0.08682 0.0041,-0.06201 0.0124,-0.14056 0.0124,-0.07855 0.02894,-0.16123 0.01654,-0.08682 0.04134,-0.157097 0.02894,-0.07028 0.07028,-0.115755 0.04134,-0.04547 0.09922,-0.04547 0.05788,0 0.14056,0.01654 0.08682,0.01654 0.157096,0.04961 0.07855,0.107487 0.14056,0.260449 0.06615,0.148828 0.06615,0.405143 0,0.161231 -0.03307,0.388607 -0.03307,0.223242 -0.08682,0.483692 -0.04961,0.256315 -0.115755,0.529167 -0.06201,0.272851 -0.128158,0.525032 -0.06615,0.248047 -0.128158,0.458887 -0.05788,0.206706 -0.09922,0.343132 -0.07441,0.239779 -0.157097,0.496094 -0.07855,0.252181 -0.177767,0.533301 -0.09508,0.276986 -0.21084,0.591179 -0.111621,0.310058 -0.252181,0.665592 -0.06201,0.161231 -0.144694,0.322461 -0.07855,0.161231 -0.181901,0.293523 -0.103353,0.128157 -0.235645,0.210839 -0.128157,0.07855 -0.289388,0.07855 -0.09508,0 -0.198437,-0.02894 -0.09922,-0.02481 -0.169499,-0.107487 -0.338998,-0.392741 -0.603581,-0.888835 -0.264583,-0.500228 -0.475423,-1.041797 -0.206706,-0.545704 -0.367937,-1.099675 -0.16123,-0.558106 -0.293522,-1.066602 l -0.02481,-0.09508 q -0.01654,-0.05788 -0.03307,-0.115755 -0.0124,-0.06201 -0.02894,-0.111621 -0.0124,-0.04961 -0.03307,-0.07855 -0.01654,-0.03307 -0.04134,-0.03307 -0.0248,0 -0.06201,0.09095 -0.03721,0.09095 -0.07441,0.206706 -0.03721,0.111621 -0.07028,0.219108 -0.02894,0.107487 -0.03721,0.136426 -0.02894,0.107487 -0.08682,0.310059 -0.05788,0.198437 -0.132292,0.450618 -0.07028,0.252181 -0.157096,0.533301 -0.08268,0.28112 -0.16123,0.545704 -0.07855,0.260449 -0.148829,0.483691 -0.07028,0.223242 -0.115755,0.359668 -0.03721,0.107487 -0.09095,0.276986 -0.05374,0.169499 -0.107488,0.343132 -0.05374,0.169498 -0.09922,0.310058 -0.04548,0.14056 -0.05788,0.186036 -0.04961,0.157096 -0.148828,0.235644 -0.09508,0.08268 -0.194304,0.08268 -0.06201,0 -0.124023,-0.04548 -0.06201,-0.04134 -0.111621,-0.103353 -0.04548,-0.06201 -0.07855,-0.132291 -0.02894,-0.07441 -0.02894,-0.132292 0,-0.03307 0.02067,-0.103353 0.02067,-0.07441 0.06615,-0.248047 l 0.107487,-0.425814 z m 1.35599,-1.050066 z"
         style="fill:#00897b;fill-opacity:1;stroke:#00897b;stroke-width:0.265;stroke-miterlimit:4;stroke-dasharray:none;stroke-opacity:1"
         id="path848" />
    </g>
  </g>
</svg>
